<svg xmlns="http://www.w3.org/2000/svg" xmlns:xlink="http://www.w3.org/1999/xlink" width="800" height="70" viewBox="0 0 800 70" class="WaveDrom"><g transform="translate(0.5,0.5)" text-anchor="middle" font-size="14" font-family="sans-serif" font-weight="normal"><g transform="translate(4,21)"><g stroke="black" stroke-width="1" stroke-linecap="round"><line x2="791"></line><line y2="31"></line><line x2="791" y1="31" y2="31"></line><line x1="791" x2="791" y2="31"></line><line x1="755" x2="755" y2="3"></line><line x1="755" x2="755" y1="31" y2="28"></line><line x1="719" x2="719" y2="3"></line><line x1="719" x2="719" y1="31" y2="28"></line><line x1="683" x2="683" y2="3"></line><line x1="683" x2="683" y1="31" y2="28"></line><line x1="647" x2="647" y2="3"></line><line x1="647" x2="647" y1="31" y2="28"></line><line x1="611" x2="611" y2="3"></line><line x1="611" x2="611" y1="31" y2="28"></line><line x1="575" x2="575" y2="3"></line><line x1="575" x2="575" y1="31" y2="28"></line><line x1="539" x2="539" y2="3"></line><line x1="539" x2="539" y1="31" y2="28"></line><line x1="503" x2="503" y2="3"></line><line x1="503" x2="503" y1="31" y2="28"></line><line x1="467" x2="467" y2="3"></line><line x1="467" x2="467" y1="31" y2="28"></line><line x1="431" x2="431" y2="3"></line><line x1="431" x2="431" y1="31" y2="28"></line><line x1="396" x2="396" y2="3"></line><line x1="396" x2="396" y1="31" y2="28"></line><line x1="360" x2="360" y2="3"></line><line x1="360" x2="360" y1="31" y2="28"></line><line x1="324" x2="324" y2="3"></line><line x1="324" x2="324" y1="31" y2="28"></line><line x1="288" x2="288" y2="3"></line><line x1="288" x2="288" y1="31" y2="28"></line><line x1="252" x2="252" y2="3"></line><line x1="252" x2="252" y1="31" y2="28"></line><line x1="216" x2="216" y2="3"></line><line x1="216" x2="216" y1="31" y2="28"></line><line x1="180" x2="180" y2="3"></line><line x1="180" x2="180" y1="31" y2="28"></line><line x1="144" x2="144" y2="3"></line><line x1="144" x2="144" y1="31" y2="28"></line><line x1="108" x2="108" y2="3"></line><line x1="108" x2="108" y1="31" y2="28"></line><line x1="72" x2="72" y2="31"></line><line x1="36" x2="36" y2="3"></line><line x1="36" x2="36" y1="31" y2="28"></line></g><g><g><rect x="72" width="719" height="31" field="target" style="fill-opacity:0.1;fill:hsl(0,100%,50%)"></rect></g><g transform="translate(18,-11)"><g transform="translate(755)"><text y="6">0</text></g><g transform="translate(72)"><text y="6">19</text></g><g transform="translate(36)"><text y="6">20</text></g><g transform="translate(0)"><text y="6">21</text></g></g><g transform="translate(18,15)"><g transform="translate(413)"><text y="6"><tspan>target</tspan></text></g><g transform="translate(18)"><text y="6"><tspan>way</tspan></text></g></g><g transform="translate(18,39)"><g transform="translate(413)"><text y="6"><tspan>last target pc[19:0]</tspan></text></g><g transform="translate(18)"><text y="6"><tspan>last hit way</tspan></text></g></g></g></g></g></svg>