<?xml version="1.0" encoding="UTF-8"?>
<svg xmlns="http://www.w3.org/2000/svg" xmlns:xlink="http://www.w3.org/1999/xlink"
     width="4580" height="5540" viewBox="0 0 4580 5540">
<defs>
</defs>
<rect x="50" y="50" width="4480" height="5440" fill="white" stroke="black" />
<text x="2290.0" y="210" font-size="160" text-anchor="middle" dominant-baseline="middle">ct_ifu_top</text>
<rect x="1490" y="530" width="1600" height="4640" fill="white" stroke="black" />
<text x="2290.0" y="540" font-size="80" text-anchor="middle" dominant-baseline="hanging">x_ct_ifu_l1_refill</text>
<path d="M50,720.0 L1490,720.0" stroke="blue" />
<path d="M1465.0,693.3333333333334 L1490,720.0 L1465.0,746.6666666666666" stroke="blue" />
<text x="1500" y="720.0" font-size="40.0" text-anchor="start" dominant-baseline="middle">cp0_ifu_icg_en</text>
<path d="M50,800.0 L1490,800.0" stroke="blue" />
<path d="M1465.0,773.3333333333334 L1490,800.0 L1465.0,826.6666666666666" stroke="blue" />
<text x="1500" y="800.0" font-size="40.0" text-anchor="start" dominant-baseline="middle">cp0_yy_clk_en</text>
<path d="M50,880.0 L1490,880.0" stroke="blue" />
<path d="M1465.0,853.3333333333334 L1490,880.0 L1465.0,906.6666666666666" stroke="blue" />
<text x="1500" y="880.0" font-size="40.0" text-anchor="start" dominant-baseline="middle">cpurst_b</text>
<path d="M50,960.0 L1490,960.0" stroke="blue" />
<path d="M1465.0,933.3333333333334 L1490,960.0 L1465.0,986.6666666666666" stroke="blue" />
<text x="1500" y="960.0" font-size="40.0" text-anchor="start" dominant-baseline="middle">forever_cpuclk</text>
<path d="M50,1040.0 L1490,1040.0" stroke="blue" />
<path d="M1465.0,1013.3333333333334 L1490,1040.0 L1465.0,1066.6666666666667" stroke="blue" />
<text x="1500" y="1040.0" font-size="40.0" text-anchor="start" dominant-baseline="middle">pad_yy_icg_scan_en</text>
<rect x="370" y="1470" width="800" height="1180" fill="white" stroke="black" />
<text x="770.0" y="2060.0" font-size="80" text-anchor="middle" dominant-baseline="middle">x_ct_ifu_ifctrl</text>
<path d="M1170,1580.0 L1490,1580.0" stroke="blue" />
<path d="M1465.0,1553.3333333333333 L1490,1580.0 L1465.0,1606.6666666666667" stroke="blue" />
<text x="1500" y="1580.0" font-size="40.0" text-anchor="start" dominant-baseline="middle">ifctrl_l1_refill_ins_inv</text>
<path d="M1170,1660.0 L1490,1660.0" stroke="blue" />
<path d="M1465.0,1633.3333333333333 L1490,1660.0 L1465.0,1686.6666666666667" stroke="blue" />
<text x="1500" y="1660.0" font-size="40.0" text-anchor="start" dominant-baseline="middle">ifctrl_l1_refill_ins_inv_dn</text>
<path d="M1170,1740.0 L1490,1740.0" stroke="blue" />
<path d="M1465.0,1713.3333333333333 L1490,1740.0 L1465.0,1766.6666666666667" stroke="blue" />
<text x="1500" y="1740.0" font-size="40.0" text-anchor="start" dominant-baseline="middle">ifctrl_l1_refill_inv_busy</text>
<path d="M1170,1820.0 L1490,1820.0" stroke="blue" />
<path d="M1465.0,1793.3333333333333 L1490,1820.0 L1465.0,1846.6666666666667" stroke="blue" />
<text x="1500" y="1820.0" font-size="40.0" text-anchor="start" dominant-baseline="middle">ifctrl_l1_refill_inv_on</text>
<path d="M1170,1900.0 L1490,1900.0" stroke="black" />
<path d="M1195.0,1926.6666666666667 L1170,1900.0 L1195.0,1873.3333333333333" stroke="black" />
<text x="1500" y="1900.0" font-size="40.0" text-anchor="start" dominant-baseline="middle">l1_refill_ifctrl_ctc</text>
<path d="M1170,1980.0 L1490,1980.0" stroke="black" />
<path d="M1195.0,2006.6666666666667 L1170,1980.0 L1195.0,1953.3333333333333" stroke="black" />
<text x="1500" y="1980.0" font-size="40.0" text-anchor="start" dominant-baseline="middle">l1_refill_ifctrl_idle</text>
<path d="M1170,2060.0 L1490,2060.0" stroke="black" />
<path d="M1195.0,2086.6666666666665 L1170,2060.0 L1195.0,2033.3333333333333" stroke="black" />
<text x="1500" y="2060.0" font-size="40.0" text-anchor="start" dominant-baseline="middle">l1_refill_ifctrl_pc</text>
<path d="M1170,2140.0 L1490,2140.0" stroke="black" />
<path d="M1195.0,2166.6666666666665 L1170,2140.0 L1195.0,2113.3333333333335" stroke="black" />
<text x="1500" y="2140.0" font-size="40.0" text-anchor="start" dominant-baseline="middle">l1_refill_ifctrl_refill_on</text>
<path d="M1170,2220.0 L1490,2220.0" stroke="black" />
<path d="M1195.0,2246.6666666666665 L1170,2220.0 L1195.0,2193.3333333333335" stroke="black" />
<text x="1500" y="2220.0" font-size="40.0" text-anchor="start" dominant-baseline="middle">l1_refill_ifctrl_reissue</text>
<path d="M1170,2300.0 L1490,2300.0" stroke="black" />
<path d="M1195.0,2326.6666666666665 L1170,2300.0 L1195.0,2273.3333333333335" stroke="black" />
<text x="1500" y="2300.0" font-size="40.0" text-anchor="start" dominant-baseline="middle">l1_refill_ifctrl_start</text>
<path d="M1170,2380.0 L1490,2380.0" stroke="black" />
<path d="M1195.0,2406.6666666666665 L1170,2380.0 L1195.0,2353.3333333333335" stroke="black" />
<text x="1500" y="2380.0" font-size="40.0" text-anchor="start" dominant-baseline="middle">l1_refill_ifctrl_start_for_gateclk</text>
<path d="M1170,2460.0 L1490,2460.0" stroke="black" />
<path d="M1195.0,2486.6666666666665 L1170,2460.0 L1195.0,2433.3333333333335" stroke="black" />
<text x="1500" y="2460.0" font-size="40.0" text-anchor="start" dominant-baseline="middle">l1_refill_ifctrl_trans_cmplt</text>
<path d="M1170,2540.0 L1490,2540.0" stroke="black" />
<path d="M1195.0,2566.6666666666665 L1170,2540.0 L1195.0,2513.3333333333335" stroke="black" />
<text x="1500" y="2540.0" font-size="40.0" text-anchor="start" dominant-baseline="middle">l1_refill_inv_wfd_back</text>
<rect x="370" y="2970" width="800" height="860" fill="white" stroke="black" />
<text x="770.0" y="3400.0" font-size="80" text-anchor="middle" dominant-baseline="middle">x_ct_ifu_icache_if</text>
<path d="M1170,3080.0 L1490,3080.0" stroke="black" />
<path d="M1195.0,3106.6666666666665 L1170,3080.0 L1195.0,3053.3333333333335" stroke="black" />
<text x="1500" y="3080.0" font-size="40.0" text-anchor="start" dominant-baseline="middle">ifu_hpcp_icache_miss_pre</text>
<path d="M1170,3160.0 L1490,3160.0" stroke="black" />
<path d="M1195.0,3186.6666666666665 L1170,3160.0 L1195.0,3133.3333333333335" stroke="black" />
<text x="1500" y="3160.0" font-size="40.0" text-anchor="start" dominant-baseline="middle">l1_refill_icache_if_fifo</text>
<path d="M1170,3240.0 L1490,3240.0" stroke="black" />
<path d="M1195.0,3266.6666666666665 L1170,3240.0 L1195.0,3213.3333333333335" stroke="black" />
<text x="1500" y="3240.0" font-size="40.0" text-anchor="start" dominant-baseline="middle">l1_refill_icache_if_first</text>
<path d="M1170,3320.0 L1490,3320.0" stroke="black" />
<path d="M1195.0,3346.6666666666665 L1170,3320.0 L1195.0,3293.3333333333335" stroke="black" />
<text x="1500" y="3320.0" font-size="40.0" text-anchor="start" dominant-baseline="middle">l1_refill_icache_if_index</text>
<path d="M1170,3400.0 L1490,3400.0" stroke="black" />
<path d="M1195.0,3426.6666666666665 L1170,3400.0 L1195.0,3373.3333333333335" stroke="black" />
<text x="1500" y="3400.0" font-size="40.0" text-anchor="start" dominant-baseline="middle">l1_refill_icache_if_inst_data</text>
<path d="M1170,3480.0 L1490,3480.0" stroke="black" />
<path d="M1195.0,3506.6666666666665 L1170,3480.0 L1195.0,3453.3333333333335" stroke="black" />
<text x="1500" y="3480.0" font-size="40.0" text-anchor="start" dominant-baseline="middle">l1_refill_icache_if_last</text>
<path d="M1170,3560.0 L1490,3560.0" stroke="black" />
<path d="M1195.0,3586.6666666666665 L1170,3560.0 L1195.0,3533.3333333333335" stroke="black" />
<text x="1500" y="3560.0" font-size="40.0" text-anchor="start" dominant-baseline="middle">l1_refill_icache_if_pre_code</text>
<path d="M1170,3640.0 L1490,3640.0" stroke="black" />
<path d="M1195.0,3666.6666666666665 L1170,3640.0 L1195.0,3613.3333333333335" stroke="black" />
<text x="1500" y="3640.0" font-size="40.0" text-anchor="start" dominant-baseline="middle">l1_refill_icache_if_ptag</text>
<path d="M1170,3720.0 L1490,3720.0" stroke="black" />
<path d="M1195.0,3746.6666666666665 L1170,3720.0 L1195.0,3693.3333333333335" stroke="black" />
<text x="1500" y="3720.0" font-size="40.0" text-anchor="start" dominant-baseline="middle">l1_refill_icache_if_wr</text>
<rect x="370" y="4150" width="800" height="220" fill="white" stroke="black" />
<text x="770.0" y="4260.0" font-size="80" text-anchor="middle" dominant-baseline="middle">x_ct_ifu_debug</text>
<path d="M1170,4260.0 L1490,4260.0" stroke="black" />
<path d="M1195.0,4286.666666666667 L1170,4260.0 L1195.0,4233.333333333333" stroke="black" />
<text x="1500" y="4260.0" font-size="40.0" text-anchor="start" dominant-baseline="middle">l1_refill_debug_refill_st</text>
<rect x="3410" y="610" width="800" height="1100" fill="white" stroke="black" />
<text x="3810.0" y="1160.0" font-size="80" text-anchor="middle" dominant-baseline="middle">x_ct_ifu_ifdp</text>
<path d="M3410,720.0 L3090,720.0" stroke="blue" />
<path d="M3115.0,746.6666666666666 L3090,720.0 L3115.0,693.3333333333334" stroke="blue" />
<text x="3080" y="720.0" font-size="40.0" text-anchor="end" dominant-baseline="middle">ifdp_l1_refill_bufferable</text>
<path d="M3410,800.0 L3090,800.0" stroke="blue" />
<path d="M3115.0,826.6666666666666 L3090,800.0 L3115.0,773.3333333333334" stroke="blue" />
<text x="3080" y="800.0" font-size="40.0" text-anchor="end" dominant-baseline="middle">ifdp_l1_refill_cacheable</text>
<path d="M3410,880.0 L3090,880.0" stroke="blue" />
<path d="M3115.0,906.6666666666666 L3090,880.0 L3115.0,853.3333333333334" stroke="blue" />
<text x="3080" y="880.0" font-size="40.0" text-anchor="end" dominant-baseline="middle">ifdp_l1_refill_fifo</text>
<path d="M3410,960.0 L3090,960.0" stroke="blue" />
<path d="M3115.0,986.6666666666666 L3090,960.0 L3115.0,933.3333333333334" stroke="blue" />
<text x="3080" y="960.0" font-size="40.0" text-anchor="end" dominant-baseline="middle">ifdp_l1_refill_machine_mode</text>
<path d="M3410,1040.0 L3090,1040.0" stroke="blue" />
<path d="M3115.0,1066.6666666666667 L3090,1040.0 L3115.0,1013.3333333333334" stroke="blue" />
<text x="3080" y="1040.0" font-size="40.0" text-anchor="end" dominant-baseline="middle">ifdp_l1_refill_secure</text>
<path d="M3410,1120.0 L3090,1120.0" stroke="blue" />
<path d="M3115.0,1146.6666666666667 L3090,1120.0 L3115.0,1093.3333333333333" stroke="blue" />
<text x="3080" y="1120.0" font-size="40.0" text-anchor="end" dominant-baseline="middle">ifdp_l1_refill_supv_mode</text>
<path d="M3410,1200.0 L3090,1200.0" stroke="blue" />
<path d="M3115.0,1226.6666666666667 L3090,1200.0 L3115.0,1173.3333333333333" stroke="blue" />
<text x="3080" y="1200.0" font-size="40.0" text-anchor="end" dominant-baseline="middle">ifdp_l1_refill_tsize</text>
<path d="M3410,1280.0 L3090,1280.0" stroke="black" />
<path d="M3385.0,1253.3333333333333 L3410,1280.0 L3385.0,1306.6666666666667" stroke="black" />
<text x="3080" y="1280.0" font-size="40.0" text-anchor="end" dominant-baseline="middle">l1_refill_ifdp_acc_err</text>
<path d="M3410,1360.0 L3090,1360.0" stroke="black" />
<path d="M3385.0,1333.3333333333333 L3410,1360.0 L3385.0,1386.6666666666667" stroke="black" />
<text x="3080" y="1360.0" font-size="40.0" text-anchor="end" dominant-baseline="middle">l1_refill_ifdp_inst_data</text>
<path d="M3410,1440.0 L3090,1440.0" stroke="black" />
<path d="M3385.0,1413.3333333333333 L3410,1440.0 L3385.0,1466.6666666666667" stroke="black" />
<text x="3080" y="1440.0" font-size="40.0" text-anchor="end" dominant-baseline="middle">l1_refill_ifdp_precode</text>
<path d="M3410,1520.0 L3090,1520.0" stroke="black" />
<path d="M3385.0,1493.3333333333333 L3410,1520.0 L3385.0,1546.6666666666667" stroke="black" />
<text x="3080" y="1520.0" font-size="40.0" text-anchor="end" dominant-baseline="middle">l1_refill_ifdp_refill_on</text>
<path d="M3410,1600.0 L3090,1600.0" stroke="black" />
<path d="M3385.0,1573.3333333333333 L3410,1600.0 L3385.0,1626.6666666666667" stroke="black" />
<text x="3080" y="1600.0" font-size="40.0" text-anchor="end" dominant-baseline="middle">l1_refill_ifdp_tag_data</text>
<rect x="3410" y="2030" width="800" height="1580" fill="white" stroke="black" />
<text x="3810.0" y="2820.0" font-size="80" text-anchor="middle" dominant-baseline="middle">x_ct_ifu_ipb</text>
<path d="M3410,2140.0 L3090,2140.0" stroke="blue" />
<path d="M3115.0,2166.6666666666665 L3090,2140.0 L3115.0,2113.3333333333335" stroke="blue" />
<text x="3080" y="2140.0" font-size="40.0" text-anchor="end" dominant-baseline="middle">ipb_l1_refill_data_vld</text>
<path d="M3410,2220.0 L3090,2220.0" stroke="blue" />
<path d="M3115.0,2246.6666666666665 L3090,2220.0 L3115.0,2193.3333333333335" stroke="blue" />
<text x="3080" y="2220.0" font-size="40.0" text-anchor="end" dominant-baseline="middle">ipb_l1_refill_grnt</text>
<path d="M3410,2300.0 L3090,2300.0" stroke="blue" />
<path d="M3115.0,2326.6666666666665 L3090,2300.0 L3115.0,2273.3333333333335" stroke="blue" />
<text x="3080" y="2300.0" font-size="40.0" text-anchor="end" dominant-baseline="middle">ipb_l1_refill_rdata</text>
<path d="M3410,2380.0 L3090,2380.0" stroke="blue" />
<path d="M3115.0,2406.6666666666665 L3090,2380.0 L3115.0,2353.3333333333335" stroke="blue" />
<text x="3080" y="2380.0" font-size="40.0" text-anchor="end" dominant-baseline="middle">ipb_l1_refill_trans_err</text>
<path d="M3410,2460.0 L3090,2460.0" stroke="black" />
<path d="M3385.0,2433.3333333333335 L3410,2460.0 L3385.0,2486.6666666666665" stroke="black" />
<text x="3080" y="2460.0" font-size="40.0" text-anchor="end" dominant-baseline="middle">l1_refill_ipb_bufferable</text>
<path d="M3410,2540.0 L3090,2540.0" stroke="black" />
<path d="M3385.0,2513.3333333333335 L3410,2540.0 L3385.0,2566.6666666666665" stroke="black" />
<text x="3080" y="2540.0" font-size="40.0" text-anchor="end" dominant-baseline="middle">l1_refill_ipb_cacheable</text>
<path d="M3410,2620.0 L3090,2620.0" stroke="black" />
<path d="M3385.0,2593.3333333333335 L3410,2620.0 L3385.0,2646.6666666666665" stroke="black" />
<text x="3080" y="2620.0" font-size="40.0" text-anchor="end" dominant-baseline="middle">l1_refill_ipb_ctc_inv</text>
<path d="M3410,2700.0 L3090,2700.0" stroke="black" />
<path d="M3385.0,2673.3333333333335 L3410,2700.0 L3385.0,2726.6666666666665" stroke="black" />
<text x="3080" y="2700.0" font-size="40.0" text-anchor="end" dominant-baseline="middle">l1_refill_ipb_machine_mode</text>
<path d="M3410,2780.0 L3090,2780.0" stroke="black" />
<path d="M3385.0,2753.3333333333335 L3410,2780.0 L3385.0,2806.6666666666665" stroke="black" />
<text x="3080" y="2780.0" font-size="40.0" text-anchor="end" dominant-baseline="middle">l1_refill_ipb_ppc</text>
<path d="M3410,2860.0 L3090,2860.0" stroke="black" />
<path d="M3385.0,2833.3333333333335 L3410,2860.0 L3385.0,2886.6666666666665" stroke="black" />
<text x="3080" y="2860.0" font-size="40.0" text-anchor="end" dominant-baseline="middle">l1_refill_ipb_pre_cancel</text>
<path d="M3410,2940.0 L3090,2940.0" stroke="black" />
<path d="M3385.0,2913.3333333333335 L3410,2940.0 L3385.0,2966.6666666666665" stroke="black" />
<text x="3080" y="2940.0" font-size="40.0" text-anchor="end" dominant-baseline="middle">l1_refill_ipb_refill_on</text>
<path d="M3410,3020.0 L3090,3020.0" stroke="black" />
<path d="M3385.0,2993.3333333333335 L3410,3020.0 L3385.0,3046.6666666666665" stroke="black" />
<text x="3080" y="3020.0" font-size="40.0" text-anchor="end" dominant-baseline="middle">l1_refill_ipb_req</text>
<path d="M3410,3100.0 L3090,3100.0" stroke="black" />
<path d="M3385.0,3073.3333333333335 L3410,3100.0 L3385.0,3126.6666666666665" stroke="black" />
<text x="3080" y="3100.0" font-size="40.0" text-anchor="end" dominant-baseline="middle">l1_refill_ipb_req_for_gateclk</text>
<path d="M3410,3180.0 L3090,3180.0" stroke="black" />
<path d="M3385.0,3153.3333333333335 L3410,3180.0 L3385.0,3206.6666666666665" stroke="black" />
<text x="3080" y="3180.0" font-size="40.0" text-anchor="end" dominant-baseline="middle">l1_refill_ipb_req_pre</text>
<path d="M3410,3260.0 L3090,3260.0" stroke="black" />
<path d="M3385.0,3233.3333333333335 L3410,3260.0 L3385.0,3286.6666666666665" stroke="black" />
<text x="3080" y="3260.0" font-size="40.0" text-anchor="end" dominant-baseline="middle">l1_refill_ipb_secure</text>
<path d="M3410,3340.0 L3090,3340.0" stroke="black" />
<path d="M3385.0,3313.3333333333335 L3410,3340.0 L3385.0,3366.6666666666665" stroke="black" />
<text x="3080" y="3340.0" font-size="40.0" text-anchor="end" dominant-baseline="middle">l1_refill_ipb_supv_mode</text>
<path d="M3410,3420.0 L3090,3420.0" stroke="black" />
<path d="M3385.0,3393.3333333333335 L3410,3420.0 L3385.0,3446.6666666666665" stroke="black" />
<text x="3080" y="3420.0" font-size="40.0" text-anchor="end" dominant-baseline="middle">l1_refill_ipb_tsize</text>
<path d="M3410,3500.0 L3090,3500.0" stroke="black" />
<path d="M3385.0,3473.3333333333335 L3410,3500.0 L3385.0,3526.6666666666665" stroke="black" />
<text x="3080" y="3500.0" font-size="40.0" text-anchor="end" dominant-baseline="middle">l1_refill_ipb_vpc</text>
<rect x="3410" y="3930" width="800" height="700" fill="white" stroke="black" />
<text x="3810.0" y="4280.0" font-size="80" text-anchor="middle" dominant-baseline="middle">x_ct_ifu_ipctrl</text>
<path d="M3410,4040.0 L3090,4040.0" stroke="blue" />
<path d="M3115.0,4066.6666666666665 L3090,4040.0 L3115.0,4013.3333333333335" stroke="blue" />
<text x="3080" y="4040.0" font-size="40.0" text-anchor="end" dominant-baseline="middle">ipctrl_l1_refill_chk_err</text>
<path d="M3410,4120.0 L3090,4120.0" stroke="blue" />
<path d="M3115.0,4146.666666666667 L3090,4120.0 L3115.0,4093.3333333333335" stroke="blue" />
<text x="3080" y="4120.0" font-size="40.0" text-anchor="end" dominant-baseline="middle">ipctrl_l1_refill_fifo</text>
<path d="M3410,4200.0 L3090,4200.0" stroke="blue" />
<path d="M3115.0,4226.666666666667 L3090,4200.0 L3115.0,4173.333333333333" stroke="blue" />
<text x="3080" y="4200.0" font-size="40.0" text-anchor="end" dominant-baseline="middle">ipctrl_l1_refill_miss_req</text>
<path d="M3410,4280.0 L3090,4280.0" stroke="blue" />
<path d="M3115.0,4306.666666666667 L3090,4280.0 L3115.0,4253.333333333333" stroke="blue" />
<text x="3080" y="4280.0" font-size="40.0" text-anchor="end" dominant-baseline="middle">ipctrl_l1_refill_ppc</text>
<path d="M3410,4360.0 L3090,4360.0" stroke="blue" />
<path d="M3115.0,4386.666666666667 L3090,4360.0 L3115.0,4333.333333333333" stroke="blue" />
<text x="3080" y="4360.0" font-size="40.0" text-anchor="end" dominant-baseline="middle">ipctrl_l1_refill_req_for_gateclk</text>
<path d="M3410,4440.0 L3090,4440.0" stroke="blue" />
<path d="M3115.0,4466.666666666667 L3090,4440.0 L3115.0,4413.333333333333" stroke="blue" />
<text x="3080" y="4440.0" font-size="40.0" text-anchor="end" dominant-baseline="middle">ipctrl_l1_refill_vpc</text>
<path d="M3410,4520.0 L3090,4520.0" stroke="black" />
<path d="M3385.0,4493.333333333333 L3410,4520.0 L3385.0,4546.666666666667" stroke="black" />
<text x="3080" y="4520.0" font-size="40.0" text-anchor="end" dominant-baseline="middle">l1_refill_ipctrl_busy</text>
<rect x="3410" y="4950" width="800" height="220" fill="white" stroke="black" />
<text x="3810.0" y="5060.0" font-size="80" text-anchor="middle" dominant-baseline="middle">x_ct_ifu_pcgen</text>
<path d="M3410,5060.0 L3090,5060.0" stroke="blue" />
<path d="M3115.0,5086.666666666667 L3090,5060.0 L3115.0,5033.333333333333" stroke="blue" />
<text x="3080" y="5060.0" font-size="40.0" text-anchor="end" dominant-baseline="middle">pcgen_l1_refill_chgflw</text>
</svg>